<?xml version="1.0" encoding="utf-8"?>
<!-- Generator: Adobe Illustrator 16.0.0, SVG Export Plug-In . SVG Version: 6.00 Build 0)  -->
<!DOCTYPE svg PUBLIC "-//W3C//DTD SVG 1.1//EN" "http://www.w3.org/Graphics/SVG/1.1/DTD/svg11.dtd">
<svg version="1.1" id="Layer_1" xmlns="http://www.w3.org/2000/svg" xmlns:xlink="http://www.w3.org/1999/xlink" x="0px" y="0px"
	 width="99.25px" height="99.531px" viewBox="0 0 99.25 99.531" enable-background="new 0 0 99.25 99.531" xml:space="preserve">
<g>
	<ellipse fill="#ADB7F5" cx="49.625" cy="49.766" rx="49.625" ry="49.766"/>
	<g>
		<g>
			<g>
				<path fill="#FCF9F9" d="M83.389,44.48H54.91V16.001c0-1.297-1.763-4.11-5.285-4.11c-3.523,0-5.285,2.813-5.285,4.11V44.48H15.86
					c-1.297,0-4.11,1.762-4.11,5.284c0,3.523,2.813,5.285,4.11,5.285h28.48v28.479c0,1.297,1.761,4.11,5.285,4.11
					c3.522,0,5.285-2.813,5.285-4.11V55.05h28.479c1.297,0,4.111-1.761,4.111-5.285C87.5,46.242,84.686,44.48,83.389,44.48z"/>
			</g>
		</g>
	</g>
</g>
</svg>
